<svg width="45" height="45" viewBox="0 0 45 45" fill="none" xmlns="http://www.w3.org/2000/svg">
<g clip-path="url(#clip0_5_621)">
<path d="M0.495001 0.494995H44.505V44.5053H0.495001V0.494995Z" fill="#F0DB4F"/>
<path d="M40.9032 34.0087C40.5809 32.0009 39.2716 30.3145 35.3936 28.742C34.0464 28.1229 32.5445 27.6795 32.097 26.6586C31.938 26.0645 31.917 25.7298 32.0175 25.3701C32.3061 24.2029 33.6994 23.8391 34.8036 24.1738C35.5148 24.4121 36.1881 24.9602 36.5941 25.8345C38.4933 24.6048 38.4894 24.6129 39.8155 23.7677C39.33 23.015 39.0709 22.6677 38.7531 22.3456C37.6109 21.0698 36.0545 20.4127 33.5654 20.463L32.2689 20.6307C31.0264 20.9447 29.8424 21.5968 29.148 22.4711C27.0647 24.835 27.6588 28.9722 30.1939 30.6748C32.6914 32.5494 36.3604 32.9758 36.829 34.7287C37.285 36.8746 35.2519 37.5693 33.2311 37.3225C31.7419 37.0128 30.9136 36.2559 30.0182 34.8795C28.37 35.8333 28.37 35.8333 26.6755 36.8079C27.0773 37.6864 27.4996 38.084 28.1732 38.8452C31.3611 42.0788 39.3388 41.9199 40.7696 37.0255C40.8277 36.8574 41.213 35.7366 40.9032 34.0087ZM24.4202 20.7221H20.3038L20.2869 31.3646C20.2869 33.628 20.404 35.7029 20.0359 36.3389C19.4337 37.5897 17.8731 37.4347 17.1619 37.1921C16.438 36.8363 16.0699 36.3304 15.6435 35.6154C15.5264 35.41 15.4385 35.2511 15.409 35.2388L12.0621 37.2884C12.6186 38.4307 13.4385 39.4221 14.4886 40.0661C16.0573 41.0076 18.1656 41.2963 20.3706 40.79C21.8057 40.372 23.0439 39.5061 23.6921 38.1881C24.6294 36.4602 24.4283 34.3687 24.4199 32.0554C24.441 28.2814 24.4202 24.5081 24.4202 20.7221Z" fill="#323330"/>
</g>
<defs>
<clipPath id="clip0_5_621">
<rect width="45" height="45" fill="white"/>
</clipPath>
</defs>
</svg>
