<svg width="45" height="45" viewBox="0 0 45 45" fill="none" xmlns="http://www.w3.org/2000/svg">
<path d="M16.7403 34.4953C16.7403 34.4953 15.0645 35.4705 17.9346 35.7996C21.4123 36.1968 23.1894 36.1399 27.0207 35.4157C27.0207 35.4157 28.0301 36.0467 29.437 36.5937C20.8452 40.2746 9.99281 36.3803 16.7403 34.4953ZM15.6899 29.6912C15.6899 29.6912 13.8097 31.083 16.6823 31.3804C20.3973 31.764 23.3304 31.7953 28.4084 30.8179C28.4084 30.8179 29.109 31.5298 30.2126 31.9187C19.8267 34.9562 8.2589 32.1577 15.6899 29.6912Z" fill="#0074BD"/>
<path d="M24.5398 21.5406C26.6579 23.9787 23.9843 26.1707 23.9843 26.1707C23.9843 26.1707 29.3593 23.3965 26.8914 19.9209C24.5855 16.6813 22.8178 15.0722 32.388 9.52173C32.388 9.52208 17.3654 13.2729 24.5398 21.5406Z" fill="#EA2D2E"/>
<path d="M35.9026 38.0492C35.9026 38.0492 37.1433 39.0723 34.5357 39.8629C29.578 41.3648 13.8969 41.8176 9.54176 39.923C7.97695 39.2417 10.9125 38.2971 11.8361 38.0977C12.799 37.8892 13.3488 37.9272 13.3488 37.9272C11.6075 36.7013 2.09426 40.3354 8.5173 41.3778C26.0325 44.217 40.4452 40.0992 35.9026 38.0492ZM17.5472 24.7127C17.5472 24.7127 9.57164 26.6073 14.7231 27.296C16.8986 27.5871 21.2333 27.5203 25.2738 27.1814C28.575 26.904 31.8878 26.3116 31.8878 26.3116C31.8878 26.3116 30.7248 26.8105 29.8825 27.3849C21.7818 29.5157 6.13652 28.5233 10.6411 26.345C14.4492 24.5032 17.5472 24.7127 17.5472 24.7127ZM31.8547 32.7097C40.0887 28.4322 36.2813 24.3214 33.6238 24.8751C32.9741 25.0105 32.6827 25.1282 32.6827 25.1282C32.6827 25.1282 32.9245 24.7489 33.3858 24.5858C38.6427 22.7383 42.685 30.036 31.6902 32.9266C31.6902 32.9259 31.8164 32.8116 31.8547 32.7097Z" fill="#0074BD"/>
<path d="M26.8914 0.557983C26.8914 0.557983 31.4504 5.11986 22.5661 12.1325C15.4413 17.7596 20.9415 20.9672 22.5636 24.6337C18.4043 20.8815 15.3534 17.5778 17.3999 14.5034C20.405 9.99146 28.7304 7.80298 26.8914 0.557983Z" fill="#EA2D2E"/>
<path d="M18.3565 44.3043C26.2582 44.8095 38.3955 44.023 38.6828 40.2838C38.6828 40.2838 38.1305 41.7013 32.1518 42.826C25.4067 44.0958 17.0859 43.9478 12.1525 43.1332C12.1525 43.1336 13.1632 43.9703 18.3565 44.3043Z" fill="#0074BD"/>
</svg>
