<svg width="55" height="55" viewBox="0 0 55 55" fill="none" xmlns="http://www.w3.org/2000/svg">
<path d="M12.9766 19.7227H23.332V20.5391H13.9219V26.7266H22.7734V27.543H13.9219V34.332H23.4609V35.1484H12.9766V19.7227ZM24.2773 19.7227H25.3945L30.293 26.5117L35.2344 19.7227L42.0234 11.1289L30.8516 27.2422L36.6094 35.1484H35.4492L30.25 27.9297L25.0078 35.1484H23.8906L29.6914 27.2422L24.2773 19.7227ZM37.0391 20.5391V19.7227H48.8555V20.5391H43.3984V35.1484H42.4531V20.5391H37.0391ZM0 19.7227H1.16016L17.5742 44.1289L10.7852 35.1484L0.988281 20.8828L0.945312 35.1484H0V19.7227ZM48.7695 34.0742C48.9844 34.0742 49.1133 33.9453 49.1133 33.7305C49.1133 33.5156 48.9844 33.3867 48.7695 33.3867C48.5547 33.3867 48.4258 33.5156 48.4258 33.7305C48.4258 33.9453 48.5977 34.0742 48.7695 34.0742ZM49.7148 33.1719C49.7148 33.7305 50.1445 34.1172 50.7461 34.1172C51.3906 34.1172 51.7773 33.7305 51.7773 33.043V30.6797H51.2617V33.043C51.2617 33.4297 51.0898 33.6016 50.7461 33.6016C50.4453 33.6016 50.2305 33.4297 50.2305 33.1289H49.7148V33.1719ZM52.4219 33.1289C52.4648 33.7305 52.9375 34.1172 53.7109 34.1172C54.4844 34.1172 55 33.7305 55 33.0859C55 32.5703 54.6992 32.3125 54.0547 32.1406L53.668 32.0547C53.2383 31.9687 53.0664 31.7969 53.0664 31.582C53.0664 31.2812 53.3242 31.0664 53.7539 31.0664C54.1406 31.0664 54.3984 31.2383 54.4414 31.582H54.957C54.9141 31.0234 54.4414 30.6367 53.7539 30.6367C53.0234 30.6367 52.5508 31.0234 52.5508 31.625C52.5508 32.0977 52.8086 32.3984 53.4102 32.5273L53.8398 32.6133C54.2695 32.6992 54.4844 32.8711 54.4844 33.1289C54.4844 33.4297 54.1836 33.6445 53.7539 33.6445C53.3242 33.6445 52.9805 33.4297 52.9375 33.1289H52.4219Z" fill="#2E2E2E"/>
</svg>
