<svg width="45" height="45" viewBox="0 0 45 45" fill="none" xmlns="http://www.w3.org/2000/svg">
<g clip-path="url(#clip0_5_624)">
<path d="M7.96992 16.5234H43.0102V42.423H7.96992V16.5234Z" fill="#2E2E2E"/>
<path d="M0.527344 22.4684V44.441H44.4727V0.495728H0.527344V22.4684ZM35.9402 20.7106C36.9928 20.9548 37.9494 21.5053 38.6895 22.2926C39.0969 22.7167 39.451 23.189 39.7441 23.6989C39.7441 23.7551 37.8457 25.0383 36.6891 25.7555C36.6469 25.7836 36.4781 25.6008 36.2918 25.3231C36.0807 24.9587 35.7806 24.6538 35.4198 24.4368C35.0589 24.2198 34.6489 24.0978 34.2281 24.0821C32.8957 23.9906 32.0379 24.6903 32.0449 25.8399C32.0339 26.1261 32.0994 26.4101 32.2348 26.6625C32.5266 27.2707 33.0715 27.6328 34.7801 28.3711C37.9266 29.7246 39.273 30.6176 40.1098 31.8867C41.0449 33.293 41.2523 35.5641 40.6195 37.2446C39.9164 39.0727 38.1937 40.3137 35.7574 40.725C34.6447 40.8525 33.5204 40.8407 32.4105 40.6899C30.7096 40.4095 29.1427 39.5928 27.9387 38.359C27.5344 37.9125 26.7469 36.7489 26.7961 36.6645C26.9244 36.5692 27.0596 36.4834 27.2004 36.4078L28.8281 35.5078L30.0902 34.7766L30.3539 35.1668C30.7989 35.8034 31.3652 36.3458 32.0203 36.7629C33.4266 37.5012 35.3461 37.3992 36.2953 36.5449C36.614 36.2319 36.8128 35.817 36.8572 35.3725C36.9015 34.9279 36.7885 34.4819 36.5379 34.1121C36.1863 33.6235 35.4832 33.2121 33.518 32.3543C31.2504 31.377 30.273 30.7723 29.3801 29.809C28.8226 29.1733 28.411 28.4234 28.1742 27.6117C27.9976 26.6845 27.9715 25.7348 28.0969 24.7992C28.5645 22.609 30.2062 21.0797 32.6039 20.6262C33.7143 20.4888 34.839 20.5196 35.9402 20.7176V20.7106ZM25.6254 22.5528V24.3528H19.9195V40.6055H15.873V24.3492H10.1531V22.5914C10.1353 21.9853 10.1494 21.3786 10.1953 20.7739C10.2234 20.7422 13.7109 20.7422 17.9297 20.7422H25.6043L25.6254 22.5528Z" fill="#007ACC"/>
</g>
<defs>
<clipPath id="clip0_5_624">
<rect width="45" height="45" fill="white"/>
</clipPath>
</defs>
</svg>
