<svg width="45" height="45" viewBox="0 0 45 45" fill="none" xmlns="http://www.w3.org/2000/svg">
<path d="M30.2302 26.7452C30.4523 24.8952 30.3859 24.6238 31.7637 24.9234L32.1135 24.9543C33.1731 25.0025 34.5593 24.7838 35.3732 24.4055C37.1261 23.5924 38.1653 22.2339 36.437 22.5907C32.4942 23.4039 32.2232 22.0694 32.2232 22.0694C36.3867 15.8921 38.1273 8.05083 36.6251 6.1313C32.528 0.895827 25.4355 3.37153 25.3167 3.43587L25.2787 3.44325C24.4997 3.28118 23.6282 3.18485 22.6487 3.16903C20.8645 3.13985 19.5107 3.63696 18.4838 4.41567C18.4838 4.41567 5.83137 -0.796947 6.41988 10.9709C6.54504 13.4744 10.0083 29.9138 14.1388 24.9483C15.6484 23.1329 17.1074 21.5976 17.1074 21.5976C17.832 22.0789 18.6993 22.3243 19.6091 22.236L19.6794 22.1763C19.6576 22.4016 19.6671 22.622 19.7079 22.8829C18.6437 24.0722 18.9566 24.2811 16.8289 24.7188C14.6767 25.1624 15.9413 25.952 16.7664 26.1584C17.7676 26.4091 20.0827 26.7638 21.6475 24.5732L21.5852 24.8232C22.0029 25.1572 21.9744 27.2233 22.0335 28.6995C22.0925 30.1757 22.1917 31.5531 22.4926 32.3659C22.7936 33.1781 23.1486 35.2702 25.9446 34.6711C28.2811 34.1698 30.0674 33.4491 30.2302 26.7452Z" fill="black"/>
<path d="M25.0341 36.1301C23.7973 36.1301 22.9922 35.6519 22.5028 35.19C21.7645 34.4935 21.4717 33.596 21.2969 33.0599L21.2214 32.8359C20.8691 31.8849 20.7499 30.516 20.6793 28.7532C20.6688 28.4777 20.66 28.202 20.6529 27.9264C20.6469 27.7151 20.6395 27.45 20.629 27.1719C20.1834 27.3844 19.7105 27.534 19.2238 27.6163C18.3519 27.7653 17.4146 27.7168 16.4373 27.4725C15.7479 27.3002 15.0314 26.943 14.6232 26.3911C13.4332 27.4335 12.298 27.2918 11.6796 27.0858C10.5887 26.7219 9.61242 25.6999 8.69449 23.9604C8.04093 22.7218 7.40847 21.1074 6.81468 19.163C5.78109 15.7764 5.12437 12.2094 5.06601 11.0387C4.8825 7.37296 5.86898 4.75171 7.99804 3.24807C11.3572 0.875378 16.4461 2.27038 18.3013 2.90389C19.5476 2.15261 21.0139 1.78663 22.6712 1.81335C23.5614 1.82776 24.4086 1.90616 25.1958 2.04608C26.0167 1.78803 27.6388 1.41749 29.4954 1.44034C32.9161 1.48112 35.7507 2.81425 37.6924 5.29557C39.0779 7.06604 38.3931 10.7835 37.8612 12.8422C37.1134 15.7373 35.8024 18.8174 34.1923 21.4984C34.6296 21.5016 35.2628 21.4488 36.1635 21.2632C37.9403 20.8962 38.4595 21.8489 38.6005 22.2753C39.1655 23.9864 36.7098 25.2791 35.9437 25.6345C34.9622 26.0905 33.3622 26.3679 32.0516 26.3078L31.9943 26.3039L31.6501 26.2737L31.616 26.5605L31.5833 26.8414C31.4954 30.2389 31.0099 32.3905 30.0111 33.8126C28.9645 35.3028 27.5094 35.7208 26.228 35.9954C25.8359 36.0824 25.4357 36.1275 25.0341 36.1301ZM22.4318 23.7642C23.2302 24.403 23.3002 25.605 23.3624 27.8515C23.3701 28.1317 23.3775 28.3971 23.3873 28.6449C23.4176 29.3952 23.4882 31.1523 23.7632 31.8948C23.8022 31.9996 23.837 32.1064 23.8736 32.2189C24.1801 33.1583 24.3341 33.6291 25.6598 33.345C26.7732 33.1066 27.3452 32.8925 27.7931 32.2548C28.4442 31.3274 28.8084 29.463 28.8752 26.7117L30.2295 26.7448L28.8844 26.5834L28.9237 26.2476C29.0528 25.1409 29.1456 24.3408 29.8856 23.812C30.4791 23.3877 31.1558 23.4288 31.6948 23.5258C31.1027 23.079 30.9389 22.5538 30.8953 22.3386L30.7825 21.7824L31.0996 21.3114C32.9277 18.5987 34.4355 15.2648 35.2364 12.1644C36.0591 8.97854 35.808 7.28647 35.5574 6.96655C32.2365 2.72284 26.4769 4.47468 25.8757 4.67401L25.7737 4.72885L25.264 4.82413L25.0028 4.76999C24.2831 4.62057 23.4837 4.53796 22.6262 4.52389C21.2794 4.50139 20.193 4.81956 19.3022 5.49561L18.6841 5.96425L17.9666 5.66858C16.4345 5.0421 11.9331 3.78245 9.55793 5.46467C8.23957 6.39843 7.6391 8.22831 7.77269 10.9033C7.81664 11.7865 8.41711 15.1295 9.4064 18.3723C10.7743 22.8533 12.0175 24.3415 12.5364 24.5148C12.6267 24.5454 12.8619 24.3626 13.0957 24.082C14.6166 22.2528 16.0629 20.7281 16.1237 20.6638L16.908 19.8387L17.8562 20.4687C18.2384 20.7228 18.6599 20.8666 19.093 20.8937L21.3546 18.965L21.0269 22.3084C21.0196 22.3836 21.0161 22.4856 21.0456 22.6754L21.144 23.3093L20.7176 23.7867L20.6684 23.8419L21.9108 24.4157L22.4318 23.7642Z" fill="black"/>
<path d="M36.438 22.5907C32.4949 23.4038 32.2239 22.069 32.2239 22.069C36.3871 15.8917 38.1273 8.05005 36.6254 6.13087C32.528 0.895401 25.4355 3.37146 25.3171 3.43579L25.2788 3.44247C24.4997 3.2811 23.6282 3.18478 22.6484 3.16896C20.8642 3.13978 19.5107 3.63653 18.4838 4.41525C18.4838 4.41525 5.83102 -0.797021 6.41953 10.9708C6.54469 13.4743 10.0079 29.9137 14.1384 24.9483C15.648 23.1328 17.1067 21.5975 17.1067 21.5975C17.8313 22.0788 18.6986 22.3242 19.608 22.2359L19.6787 22.1762C19.6569 22.4015 19.6668 22.622 19.7068 22.8828C18.643 24.0722 18.9552 24.281 16.8282 24.7187C14.6756 25.1624 15.9402 25.952 16.766 26.1583C17.7669 26.409 20.0823 26.7637 21.6468 24.5731L21.5842 24.8231C22.0011 25.1571 22.294 26.9954 22.2448 28.6618C22.1955 30.3282 22.1629 31.4722 22.4916 32.3659C22.8203 33.2592 23.1476 35.2701 25.9439 34.6711C28.2804 34.1701 29.4912 32.8725 29.6599 30.7083C29.7795 29.1695 30.0498 29.3969 30.067 28.0209L30.2843 27.3695C30.5343 25.2833 30.324 24.6104 31.7637 24.9236L32.1135 24.9542C33.1731 25.0027 34.5596 24.7837 35.3735 24.4054C37.1264 23.5919 38.166 22.2338 36.438 22.5907Z" fill="#336791"/>
<path d="M25.1754 35.2948C22.8442 35.2952 22.1059 33.4491 21.8036 32.6943C21.3616 31.5883 21.266 27.295 21.3645 23.7741C21.371 23.6566 21.4232 23.5462 21.5098 23.4665C21.5965 23.3868 21.7108 23.3441 21.8285 23.3474C21.9462 23.3507 22.058 23.3997 22.14 23.4842C22.2221 23.5686 22.268 23.6817 22.268 23.7994C22.1544 27.8603 22.3158 31.5401 22.6427 32.3586C23.1536 33.6354 23.9281 34.7523 26.1186 34.2834C28.1981 33.8372 28.9768 33.0487 29.3235 31.0384C29.59 29.4954 30.1159 25.1062 30.1806 24.2399C30.1895 24.1204 30.2455 24.0094 30.3363 23.9312C30.4271 23.853 30.5452 23.8141 30.6647 23.823C30.7842 23.8319 30.8952 23.8879 30.9734 23.9787C31.0516 24.0695 31.0905 24.1876 31.0816 24.3071C31.0141 25.2085 30.4903 29.5897 30.2136 31.1921C29.8041 33.5669 28.7455 34.6441 26.3078 35.1668C25.9358 35.2491 25.5563 35.2919 25.1754 35.2948ZM12.5364 26.279C12.3326 26.2788 12.1303 26.2454 11.9373 26.1802C10.4231 25.675 8.98102 23.2091 7.65071 18.8505C6.63821 15.5324 5.9966 12.0695 5.94035 10.9442C5.77336 7.60785 6.63293 5.24711 8.49446 3.92805C12.1774 1.3184 18.3734 3.8036 18.6353 3.91047C18.7452 3.95647 18.8325 4.04403 18.8781 4.15408C18.9238 4.26414 18.9241 4.38777 18.8791 4.49807C18.834 4.60837 18.7472 4.6964 18.6375 4.74299C18.5279 4.78958 18.4042 4.79097 18.2936 4.74684V4.74719C18.2338 4.72258 12.2924 2.3425 9.01512 4.66668C7.42325 5.79555 6.69235 7.89227 6.84246 10.8995C6.88992 11.8473 7.48934 15.2276 8.51485 18.5872C9.70242 22.4779 11.0542 24.9336 12.2231 25.3231C12.4063 25.3846 12.9646 25.5706 13.7633 24.6108C15.2652 22.8038 16.6451 21.3617 16.6588 21.3473C16.7428 21.2659 16.8551 21.2202 16.9721 21.2199C17.0891 21.2195 17.2017 21.2646 17.2862 21.3455C17.3706 21.4264 17.4205 21.5369 17.4251 21.6538C17.4298 21.7707 17.389 21.8849 17.3113 21.9723C17.2976 21.9864 15.9388 23.4071 14.458 25.1884C13.7566 26.0315 13.0841 26.279 12.5364 26.279ZM32.1957 22.4719C32.1137 22.472 32.0332 22.4498 31.9628 22.4076C31.8925 22.3654 31.835 22.3048 31.7965 22.2324C31.758 22.1599 31.7399 22.0783 31.7443 21.9964C31.7487 21.9145 31.7753 21.8353 31.8213 21.7674C36.0299 15.5222 37.5072 7.97664 36.2419 6.36016C34.6493 4.32531 32.4004 3.26219 29.558 3.20137C27.4532 3.15567 25.7801 3.69321 25.5069 3.78707L25.4384 3.81485C25.1634 3.90133 24.9525 3.75051 24.8731 3.57438C24.8278 3.47346 24.8209 3.35948 24.8538 3.25388C24.8867 3.14828 24.9571 3.05834 25.0516 3.00098L25.1733 2.95106L25.1673 2.95281L25.1736 2.95071C25.6381 2.7809 27.3364 2.27113 29.4405 2.29539C32.586 2.32844 35.184 3.54168 36.9538 5.80293C37.7912 6.87309 37.793 9.3386 36.9591 12.567C36.109 15.8583 34.5094 19.3961 32.5709 22.2726C32.5295 22.3341 32.4737 22.3844 32.4083 22.4192C32.3428 22.454 32.2698 22.4721 32.1957 22.4719ZM32.4106 25.3628C31.692 25.3628 31.0479 25.2619 30.6622 25.0306C30.2657 24.7933 30.1901 24.4702 30.1802 24.299C30.072 22.3991 31.1203 22.0683 31.655 21.9175C31.5805 21.805 31.4743 21.6725 31.365 21.5357C31.0532 21.1462 30.6264 20.6125 30.2973 19.8145C30.246 19.69 30.0843 19.4 29.8972 19.0646C28.8837 17.2473 26.775 13.4656 28.1296 11.5288C28.7568 10.6327 30.0048 10.2801 31.8442 10.477C31.3031 8.82848 28.7262 3.67141 22.6125 3.57121C20.7735 3.54028 19.2653 4.10594 18.1322 5.24992C15.595 7.81246 15.6871 12.4489 15.6881 12.4949C15.6897 12.5542 15.6795 12.6133 15.6583 12.6686C15.637 12.724 15.605 12.7747 15.5642 12.8177C15.5234 12.8607 15.4744 12.8953 15.4202 12.9194C15.366 12.9435 15.3076 12.9567 15.2483 12.9583C15.189 12.9598 15.13 12.9497 15.0746 12.9284C15.0192 12.9072 14.9686 12.8752 14.9256 12.8343C14.8825 12.7935 14.848 12.7446 14.8238 12.6904C14.7997 12.6362 14.7865 12.5778 14.785 12.5185C14.7793 12.3128 14.6844 7.44754 17.4902 4.61395C18.8033 3.28785 20.5316 2.63324 22.6273 2.66735C26.5395 2.73168 29.057 4.72012 30.4805 6.37739C32.0316 8.18301 32.7923 10.175 32.8549 10.8394C32.9017 11.3337 32.547 11.4329 32.4752 11.4473L32.3125 11.4511C30.5072 11.1622 29.3491 11.3625 28.8703 12.047C27.8399 13.5194 29.8347 17.0965 30.6865 18.6244C30.9041 19.014 31.0609 19.2956 31.1326 19.4696C31.4125 20.1481 31.7774 20.6041 32.0706 20.9704C32.3283 21.2928 32.5519 21.5719 32.632 21.9003C32.6689 21.9653 33.1956 22.7437 36.3192 22.0989C37.1021 21.9375 37.5715 22.0757 37.7149 22.5095C37.9972 23.3635 36.4134 24.3591 35.5366 24.7666C34.7498 25.1318 33.4958 25.3628 32.4106 25.3628ZM31.0813 24.2245C31.1801 24.3247 31.6758 24.4969 32.7027 24.453C33.6154 24.4136 34.5783 24.215 35.1563 23.9471C35.8952 23.6039 36.3881 23.2204 36.6437 22.9585L36.5017 22.9845C34.5045 23.3969 33.0919 23.342 32.3033 22.821C32.2503 22.7861 32.1992 22.7482 32.1504 22.7075C32.065 22.7412 31.9859 22.7634 31.9296 22.7792C31.4821 22.9047 31.0194 23.0344 31.0813 24.2245ZM18.18 26.7483C17.6839 26.7483 17.1619 26.6812 16.6286 26.5472C16.0763 26.4091 15.1446 25.9932 15.159 25.3101C15.1748 24.5433 16.2897 24.3134 16.7098 24.2269C18.2257 23.9147 18.3245 23.7896 18.7984 23.1881C18.9366 23.0126 19.1085 22.7943 19.3426 22.5324C19.6907 22.1432 20.0711 21.9456 20.4732 21.9456C20.7531 21.9456 20.983 22.0409 21.1345 22.1035C21.6183 22.3039 22.0219 22.7883 22.1878 23.3684C22.3376 23.8915 22.2662 24.395 21.9867 24.7859C21.0698 26.0702 19.7536 26.7483 18.18 26.7483ZM16.135 25.3491C16.2714 25.4542 16.5442 25.5948 16.8476 25.6711C17.3095 25.7864 17.7574 25.8452 18.18 25.8452C19.4674 25.8452 20.5007 25.3118 21.2516 24.261C21.4081 24.0416 21.3613 23.7636 21.3195 23.617C21.2316 23.3104 21.0136 23.0316 20.7889 22.9381C20.667 22.8875 20.5661 22.8488 20.4732 22.8488C20.4233 22.8488 20.2718 22.8488 20.0162 23.1346C19.8004 23.3758 19.6453 23.5727 19.5079 23.7467C18.9179 24.4959 18.6476 24.75 16.8919 25.1118C16.4637 25.2004 16.2439 25.2897 16.135 25.3491ZM19.6091 23.265C19.5013 23.2649 19.397 23.2262 19.3152 23.1559C19.2334 23.0856 19.1794 22.9884 19.163 22.8818C19.1514 22.8068 19.1439 22.7313 19.1405 22.6554C17.9895 22.6336 16.8792 22.14 16.0365 21.2604C14.9709 20.1484 14.4858 18.6079 14.7059 17.0339C14.9449 15.3247 14.8556 13.8157 14.8075 13.005C14.7954 12.8383 14.788 12.6712 14.7853 12.5041C14.786 12.3613 14.7888 11.982 16.0562 11.3397C16.5069 11.1112 17.4108 10.7125 18.398 10.6102C20.0341 10.4414 21.1124 11.1699 21.4351 12.6619C22.3063 16.6908 21.504 18.4729 20.9183 19.774C20.809 20.0159 20.706 20.2451 20.6237 20.4666L20.5509 20.6624C20.2416 21.4921 19.974 22.2089 20.0563 22.7447C20.0744 22.8632 20.0447 22.9839 19.9739 23.0806C19.903 23.1772 19.7968 23.2418 19.6784 23.2601L19.6091 23.265ZM15.6916 12.6289L15.7096 12.9516C15.7595 13.7936 15.8523 15.3609 15.6006 17.1595C15.4192 18.4574 15.8157 19.7248 16.6887 20.6357C17.3784 21.3557 18.2869 21.753 19.2203 21.753H19.2396C19.3444 21.3125 19.5177 20.8477 19.7044 20.3467L19.7768 20.1523C19.87 19.902 19.9789 19.6598 20.0943 19.4035C20.6582 18.1505 21.3599 16.591 20.5516 12.8528C20.3913 12.1128 20.0032 11.6842 19.3651 11.5429C18.0545 11.2532 16.1016 12.239 15.6916 12.6289ZM18.4184 12.4373C18.3959 12.5969 18.7112 13.0233 19.1218 13.0803C19.5321 13.1376 19.8833 12.8043 19.9055 12.6447C19.9276 12.4847 19.6126 12.3089 19.2016 12.2516C18.7914 12.1943 18.4402 12.2773 18.4184 12.4373ZM19.2164 13.2378L19.1011 13.2297C18.8462 13.1942 18.5885 13.0335 18.4124 12.7997C18.3505 12.7178 18.2493 12.5582 18.2693 12.4162C18.2981 12.2077 18.552 12.0832 18.9489 12.0832C19.0378 12.0832 19.1299 12.0899 19.2231 12.1026C19.4397 12.1328 19.6411 12.1954 19.7898 12.2784C20.0475 12.4225 20.0665 12.5828 20.0549 12.6661C20.0229 12.8957 19.6566 13.2378 19.2164 13.2378ZM18.5681 12.464C18.5811 12.5624 18.8248 12.8876 19.1426 12.9316L19.2161 12.9368C19.5093 12.9368 19.7286 12.7059 19.7543 12.6303C19.7272 12.5789 19.5388 12.4506 19.1809 12.4014C19.1039 12.3903 19.0263 12.3847 18.9485 12.3845C18.7193 12.3842 18.5966 12.4359 18.5681 12.464ZM30.9154 12.1114C30.9375 12.2713 30.6229 12.6978 30.2119 12.7547C29.8013 12.8117 29.45 12.4788 29.4275 12.3188C29.4057 12.1592 29.7207 11.9831 30.1314 11.9261C30.542 11.8684 30.8929 11.9521 30.9154 12.1114ZM30.1173 12.8363C29.7218 12.8363 29.3811 12.5287 29.353 12.3293C29.3207 12.0899 29.7148 11.9078 30.1212 11.8516C30.2105 11.8389 30.2991 11.8326 30.3845 11.8326C30.735 11.8326 30.967 11.9356 30.9902 12.1012C31.0054 12.2088 30.9231 12.3743 30.7811 12.5234C30.6875 12.6218 30.4907 12.7923 30.2228 12.8293L30.1173 12.8363ZM30.3841 11.983C30.3057 11.983 30.2242 11.989 30.1416 12.0003C29.733 12.0569 29.4901 12.2211 29.5017 12.3089C29.5154 12.4053 29.7759 12.6858 30.117 12.6858L30.201 12.6798C30.4239 12.6486 30.5912 12.5034 30.671 12.4193C30.7962 12.2875 30.8461 12.1638 30.8401 12.1212C30.8327 12.066 30.6823 11.983 30.3841 11.983ZM31.507 21.2829C31.4252 21.2829 31.3449 21.2606 31.2748 21.2185C31.2046 21.1764 31.1472 21.116 31.1087 21.0438C31.0702 20.9716 31.052 20.8903 31.0561 20.8086C31.0602 20.7269 31.0864 20.6478 31.1319 20.5798C32.0938 19.143 31.9177 17.6773 31.7475 16.2605C31.6747 15.6565 31.5998 15.0325 31.6195 14.4331C31.6392 13.8168 31.7173 13.3084 31.7932 12.8163C31.8829 12.2337 31.9676 11.6828 31.9324 11.0296C31.9298 10.9122 31.973 10.7984 32.0529 10.7123C32.1327 10.6262 32.2429 10.5745 32.3602 10.5682C32.4774 10.5619 32.5925 10.6015 32.6811 10.6785C32.7697 10.7556 32.8249 10.8641 32.8349 10.9811C32.875 11.7278 32.779 12.3508 32.6862 12.9537C32.6145 13.4188 32.5403 13.8998 32.5223 14.4619C32.5051 14.9924 32.573 15.556 32.6447 16.1522C32.8261 17.6594 33.0311 19.3676 31.8829 21.0822C31.7957 21.2123 31.6526 21.2829 31.507 21.2829Z" fill="white"/>
<path d="M0.996681 36.2756C1.50145 36.1937 2.01216 36.154 2.52352 36.1568C3.30926 36.1568 3.88547 36.3396 4.2511 36.6686C4.5893 36.9611 4.79039 37.409 4.79039 37.9578C4.79039 38.5154 4.62551 38.9541 4.31473 39.2741C3.89426 39.7219 3.20871 39.9505 2.43176 39.9505C2.1941 39.9505 1.97473 39.9413 1.79227 39.8956V42.3639H0.996681V36.2756ZM1.79227 39.2463C1.96594 39.292 2.18531 39.3103 2.45039 39.3103C3.40981 39.3103 3.99516 38.8441 3.99516 37.994C3.99516 37.1805 3.4193 36.7875 2.5418 36.7875C2.19445 36.7875 1.92938 36.8149 1.79227 36.8514V39.2463ZM9.6075 40.1146C9.6075 41.7508 8.47371 42.4641 7.40426 42.4641C6.20684 42.4641 5.28363 41.5866 5.28363 40.1878C5.28363 38.707 6.25254 37.8386 7.47738 37.8386C8.74828 37.8383 9.6075 38.7618 9.6075 40.1146ZM6.0975 40.1603C6.0975 41.1293 6.65508 41.8605 7.44117 41.8605C8.20899 41.8605 8.78449 41.1384 8.78449 40.1421C8.78449 39.3925 8.41008 38.4419 7.4591 38.4419C6.50813 38.4419 6.0975 39.3194 6.0975 40.1603ZM10.5121 41.5406C10.7497 41.696 11.1702 41.8605 11.5724 41.8605C12.1574 41.8605 12.4316 41.568 12.4316 41.2024C12.4316 40.8185 12.2034 40.6082 11.6089 40.3889C10.8137 40.1055 10.4389 39.6668 10.4389 39.1366C10.4389 38.4236 11.0148 37.8386 11.9654 37.8386C12.4133 37.8386 12.8067 37.9666 13.0535 38.1128L12.8524 38.6978C12.5804 38.5302 12.267 38.4416 11.9475 38.4419C11.4722 38.4419 11.2071 38.7161 11.2071 39.0452C11.2071 39.4108 11.4725 39.5753 12.0484 39.7947C12.8162 40.0872 13.2093 40.4711 13.2093 41.1293C13.2093 41.9062 12.606 42.4546 11.5548 42.4546C11.0704 42.4546 10.6225 42.3358 10.3117 42.153L10.5121 41.5406ZM15.2107 36.6683V37.9388H16.3621V38.5512H15.2107V40.9369C15.2107 41.4854 15.3657 41.7962 15.814 41.7962C15.9711 41.7984 16.1278 41.78 16.2802 41.7413L16.3167 42.3446C16.1617 42.4086 15.9145 42.4543 15.6041 42.4543C15.2293 42.4543 14.9273 42.3355 14.7354 42.1161C14.5072 41.8784 14.4246 41.4854 14.4246 40.9644V38.5512H13.7391V37.9388H14.4246V36.8785L15.2107 36.6683ZM21.0241 37.9392C21.0055 38.2591 20.9876 38.6156 20.9876 39.1549V41.7234C20.9876 42.738 20.7865 43.3596 20.3569 43.7438C19.9273 44.146 19.3057 44.274 18.7481 44.274C18.218 44.274 17.633 44.146 17.2761 43.9084L17.4772 43.2959C17.7697 43.4787 18.2268 43.6433 18.7752 43.6433C19.5979 43.6433 20.2011 43.2137 20.2011 42.0985V41.6049H20.1829C19.9361 42.0162 19.4607 42.3453 18.7752 42.3453C17.6783 42.3453 16.8922 41.413 16.8922 40.1878C16.8922 38.6887 17.8703 37.8386 18.8849 37.8386C19.653 37.8386 20.0735 38.2408 20.2655 38.6064H20.2838L20.3203 37.9392H21.0241ZM20.1923 39.685C20.1923 39.5479 20.1832 39.4291 20.1466 39.3194C20.0004 38.8532 19.6073 38.4693 19.0223 38.4693C18.2542 38.4693 17.7061 39.1183 17.7061 40.1421C17.7061 41.0104 18.1448 41.7325 19.0132 41.7325C19.5068 41.7325 19.9547 41.4218 20.1284 40.9099C20.1741 40.7728 20.1927 40.6174 20.1927 40.4803L20.1923 39.685ZM22.2669 39.3194C22.2669 38.7984 22.2578 38.3505 22.2304 37.9392H22.9345L22.9616 38.8075H22.9982C23.1993 38.2134 23.6837 37.8386 24.223 37.8386C24.3144 37.8386 24.378 37.8478 24.4512 37.8661V38.6247C24.3612 38.6052 24.2693 38.596 24.1773 38.5973C23.6106 38.5973 23.208 39.0269 23.0987 39.6302C23.0761 39.7539 23.0639 39.8792 23.0621 40.005V42.3632H22.2669V39.3194ZM25.6127 40.2975C25.631 41.3852 26.3254 41.8331 27.1297 41.8331C27.7059 41.8331 28.0529 41.7325 28.3546 41.6046L28.4917 42.1804C28.2083 42.3084 27.7239 42.4546 27.02 42.4546C25.6581 42.4546 24.8446 41.5589 24.8446 40.2243C24.8446 38.8898 25.6307 37.8383 26.9195 37.8383C28.3637 37.8383 28.7476 39.1088 28.7476 39.9223C28.7476 40.0869 28.7293 40.2148 28.7202 40.2971L25.6127 40.2975ZM27.971 39.7216C27.9798 39.2097 27.7604 38.4145 26.8559 38.4145C26.0423 38.4145 25.6859 39.164 25.6215 39.7216H27.971Z" fill="black"/>
<path d="M29.6617 41.3944C30.0926 41.6532 30.5849 41.7921 31.0876 41.7965C31.9011 41.7965 32.3764 41.3669 32.3764 40.7454C32.3764 40.1695 32.0474 39.8404 31.2156 39.5205C30.2101 39.164 29.5886 38.643 29.5886 37.7747C29.5886 36.8149 30.3838 36.1019 31.5812 36.1019C32.2119 36.1019 32.6689 36.2482 32.9432 36.4036L32.7238 37.0526C32.3642 36.8592 31.9621 36.7587 31.5538 36.7601C30.7129 36.7601 30.3929 37.2628 30.3929 37.6833C30.3929 38.2591 30.7673 38.5425 31.6178 38.8715C32.6598 39.2741 33.19 39.7765 33.19 40.6814C33.19 41.632 32.4861 42.4547 31.0328 42.4547C30.4386 42.4547 29.7896 42.281 29.4602 42.0616L29.6617 41.3944ZM39.3599 43.2682C38.5653 43.0597 37.7786 42.8218 37.0016 42.5552C36.8736 42.5095 36.7457 42.4638 36.6268 42.4638C35.1643 42.409 33.9121 41.3304 33.9121 39.3468C33.9121 37.3725 35.1186 36.1019 36.7822 36.1019C38.455 36.1019 39.543 37.3999 39.543 39.2189C39.543 40.8002 38.8118 41.8148 37.788 42.1713V42.2079C38.4005 42.3633 39.0677 42.5095 39.5888 42.6009L39.3599 43.2682ZM38.7018 39.2554C38.7018 38.0215 38.0623 36.7506 36.7548 36.7506C35.4111 36.7506 34.753 37.9937 34.7622 39.3286C34.753 40.6357 35.4751 41.8148 36.7182 41.8148C37.9891 41.8148 38.7018 40.6631 38.7018 39.2554ZM40.5752 36.2025H41.3708V41.696H44.0033V42.3633H40.5752V36.2025Z" fill="#336791"/>
</svg>
