<svg width="67" height="45" viewBox="0 0 67 45" fill="none" xmlns="http://www.w3.org/2000/svg">
<g clip-path="url(#clip0_5_631)">
<path d="M19.6388 29.6945L21.6451 36.2043C22.0959 37.6823 22.2839 38.7141 22.2086 39.3022C23.3059 36.3634 24.0725 33.1608 24.5088 29.6945H26.9212C25.8839 35.3377 24.5157 39.4385 22.8174 41.9966C21.4943 43.968 20.0447 44.9536 18.4662 44.9536C18.0454 44.9536 17.5265 44.8265 16.9108 44.574V43.2137C17.2117 43.2578 17.5646 43.2814 17.9705 43.2814C18.7068 43.2814 19.3004 43.0773 19.7519 42.67C20.2925 42.1737 20.5632 41.6159 20.5632 40.9976C20.5632 40.5755 20.3521 39.7091 19.9319 38.3986L17.1365 29.6945H19.6388ZM4.28377 25.6934L7.95855 36.9054H7.98125L11.6786 25.6934H14.6994C15.3609 31.2538 15.7515 36.3413 15.8715 40.9529H13.3246C13.235 36.642 12.9868 32.5884 12.5809 28.7913H12.5587L8.68049 40.9529H6.74097L2.88619 28.7913H2.8635C2.57751 32.4379 2.39751 36.4916 2.32246 40.9529H0C0.150086 35.5271 0.525688 30.4411 1.12681 25.6934H4.28377Z" fill="#00758F"/>
<path d="M45.451 25.4669C49.4039 25.4669 51.3805 27.9923 51.3805 33.0407C51.3805 35.784 50.786 37.8562 49.5984 39.2561C49.3843 39.512 49.1477 39.733 48.8986 39.9377L51.696 41.3209L51.6933 41.3207L50.7 43.0359L47.0571 40.9103C46.4533 41.0891 45.7889 41.1785 45.0649 41.1785C43.1239 41.1785 41.6741 40.6128 40.7156 39.4829C39.6634 38.233 39.1376 36.2652 39.1376 33.583C39.1376 30.8552 39.731 28.7909 40.9191 27.3892C42.0011 26.107 43.512 25.4669 45.451 25.4669ZM33.3462 25.4891C34.759 25.4891 36.0436 25.8672 37.2007 26.6206L36.613 27.9302C35.6229 27.5093 34.6466 27.298 33.684 27.298C32.9029 27.298 32.301 27.486 31.8814 27.8643C31.4595 28.2393 31.1985 28.7218 31.1985 29.31C31.1985 30.2138 31.8425 30.9977 33.0314 31.6599C33.4209 31.8728 33.8091 32.0882 34.1959 32.306L34.2846 32.3559L34.3291 32.3809L34.4179 32.4308L34.4623 32.4559L34.551 32.5059C35.451 33.0133 36.2979 33.4976 36.2979 33.4976C37.4867 34.3415 38.0793 35.2412 38.0793 36.7231C38.0793 38.0173 37.605 39.0796 36.6597 39.9109C35.7136 40.7384 34.4427 41.1534 32.851 41.1534C31.3624 41.1534 29.9197 40.6758 28.5223 39.7286L29.176 38.4178C30.3786 39.0206 31.4669 39.3216 32.4441 39.3216C33.3606 39.3216 34.078 39.117 34.597 38.7129C35.115 38.3058 35.4253 37.7381 35.4253 37.0183C35.4253 36.1122 34.7951 35.3377 33.6389 34.6879C33.277 34.488 32.9161 34.2861 32.5564 34.0823L32.4678 34.0321C32.3051 33.9402 32.1412 33.8471 31.9807 33.7559L31.8937 33.7064C31.1129 33.2624 30.4379 32.8744 30.4379 32.8744C29.2821 32.0289 28.7025 31.1218 28.7025 29.6272C28.7025 28.391 29.1347 27.3919 29.9978 26.6318C30.863 25.87 31.9793 25.4891 33.3462 25.4891ZM56.026 25.6933V39.0757H60.8275V40.9529H53.5909V25.6933H56.026ZM63.4955 39.0816V39.3987H62.9676V40.9512H62.5641V39.3987H62.0157V39.0816H63.4956H63.4955ZM64.4703 39.0816L64.9772 40.356L65.4428 39.0816H66.0149V40.9512H65.6345V39.5283L65.1046 40.9512H64.8303L64.2995 39.5283H64.2791V40.9512H63.9192V39.0816H64.4704H64.4703ZM45.2024 27.3435C42.873 27.3435 41.7077 29.266 41.7077 33.1084C41.7077 35.3094 42.0165 36.9054 42.6329 37.9002C43.2039 38.8208 44.0981 39.2803 45.3156 39.2803C47.6451 39.2803 48.8103 37.3428 48.8103 33.4697C48.8103 31.2995 48.5015 29.7172 47.8858 28.7219C47.3142 27.8033 46.4204 27.3435 45.2026 27.3435H45.2024Z" fill="#F29111"/>
<path d="M39.0969 0.945525C39.8696 -0.953243 42.5715 0.484694 43.6201 1.14796C43.8771 1.31391 44.1718 1.66449 44.4664 1.79408C44.9261 1.81213 45.3854 1.8481 45.8458 1.86732C46.7095 2.07027 47.5184 2.23608 48.199 2.62368C51.3616 4.48621 53.4204 6.38421 55.3152 9.51925C55.7201 10.1833 55.9224 10.9019 56.2531 11.6205C56.7121 12.6916 57.2279 13.8159 57.7607 14.8287C57.9992 15.3089 58.1837 15.8428 58.515 16.2484C58.6443 16.4338 59.0116 16.4884 59.2312 16.5992C59.8383 16.9134 60.5737 17.152 61.1447 17.5207C62.2109 18.1856 63.2418 18.9778 64.1789 19.7888C64.5282 20.1019 64.7662 20.545 65.099 20.8761V21.0432C64.8036 21.1339 64.5092 21.2267 64.2146 21.3011C63.5711 21.4664 63.001 21.429 62.3767 21.5945C61.9909 21.7064 61.5119 21.854 61.1073 21.8915L61.1447 21.9292C61.3827 22.6094 62.6706 23.1625 63.2596 23.5693C63.9749 24.0856 64.6378 24.7117 65.1713 25.4308C65.3556 25.6143 65.5399 25.7813 65.7232 25.9642C65.8514 26.1497 65.8875 26.3895 66.0172 26.5548V26.6107C65.8735 26.5601 65.7703 26.4634 65.6724 26.3623L65.614 26.3013C65.5556 26.2407 65.4967 26.1811 65.4295 26.132C65.0236 25.8548 64.6205 25.5231 64.2146 25.2654C63.5168 24.8226 62.7074 24.5656 61.9909 24.1212C61.5858 23.8632 61.1996 23.5693 60.8134 23.274C60.4634 23.0153 60.0778 22.5183 59.8579 22.1496C59.7283 21.9458 59.7105 21.7064 59.5625 21.559C59.5889 21.3129 59.8144 21.2398 60.042 21.1797L60.0943 21.1659C60.1729 21.1455 60.2497 21.1251 60.3168 21.0982C61.2727 20.6923 62.4124 20.545 63.8841 20.5819C63.8287 20.2124 62.9091 19.7519 62.6155 19.5307C62.0262 19.1059 61.4023 18.6628 60.7772 18.2762C60.446 18.0738 59.8751 17.926 59.5082 17.7606C59.0116 17.5576 57.908 17.3548 57.6329 16.9682C57.1655 16.3589 56.8297 15.632 56.5037 14.8978L56.415 14.6975C56.3855 14.6307 56.3558 14.5639 56.3261 14.4972C55.9408 13.6131 55.4622 12.6913 55.076 11.786C54.8741 11.3444 54.7814 10.9568 54.5602 10.5332C53.2184 7.93406 51.2323 5.75795 48.8244 4.22756C48.033 3.72959 47.1507 3.26876 46.1767 2.95557C45.6247 2.78885 44.9622 2.88104 44.3741 2.75313H43.987C43.6567 2.66004 43.3809 2.30984 43.1231 2.1252C42.5539 1.73863 41.9837 1.47908 41.3029 1.20328C41.0644 1.09265 40.3832 0.835023 40.1454 1.03785C39.9982 1.07485 39.9235 1.13042 39.8873 1.27819C39.7408 1.49868 39.8696 1.83083 39.9608 2.03416C40.237 2.62342 40.6227 2.97362 40.9729 3.47159C41.2845 3.9132 41.6714 4.41117 41.8923 4.89134C42.3689 5.92351 42.5908 7.06707 43.0324 8.09911C43.1961 8.48722 43.4552 8.92883 43.6936 9.27891C43.8956 9.55677 44.263 9.75766 44.3741 10.1094C44.5956 10.4782 44.0425 11.695 43.9145 12.0814C43.4354 13.5935 43.5283 15.6953 44.0799 17.006L44.1093 17.0751L44.1387 17.1451C44.3401 17.6252 44.5557 18.1421 45.0912 18.2763C45.128 18.2397 45.0912 18.2589 45.1643 18.2397C45.2938 17.2252 45.3303 16.2482 45.68 15.4545C45.8821 14.9582 46.2855 14.6073 46.5621 14.2022C46.7465 14.3126 46.7465 14.6454 46.8563 14.8656C47.0957 15.4368 47.3526 16.0631 47.6476 16.636C48.2531 17.8158 48.9345 18.9596 49.7064 19.9916C49.965 20.3603 50.3318 20.766 50.6626 21.098C50.81 21.2266 50.9751 21.3009 51.0858 21.4663H51.1219V21.522C50.5703 21.3187 50.2206 20.748 49.7807 20.4148C48.9524 19.7885 47.9605 18.848 47.3895 17.9456C47.1507 17.4275 46.8926 16.931 46.6352 16.4155V16.3782C46.5252 16.5255 46.5621 16.6717 46.507 16.8945C46.2682 17.8158 46.4521 18.8667 45.6247 19.1981C44.6868 19.5862 43.9872 18.5719 43.6936 18.1109C42.7554 16.5809 42.4984 13.9998 43.16 11.9162C43.307 11.455 43.327 10.9019 43.5836 10.5336C43.5281 10.2007 43.2716 10.1097 43.1231 9.90568C42.8658 9.55703 42.6454 9.15087 42.4439 8.76366C42.0568 8.0073 41.7814 7.10356 41.4875 6.2924C41.3583 5.96116 41.3213 5.62862 41.1925 5.31504C40.9728 4.83641 40.5678 4.35624 40.2554 3.9328C39.8323 3.32421 38.6002 2.14467 39.0969 0.945525ZM45.1276 4.55777C45.1768 4.60703 45.2361 4.6501 45.2975 4.69252L45.3715 4.74332C45.4701 4.81166 45.5657 4.88361 45.6242 4.9816C45.717 5.11131 45.7343 5.23935 45.8455 5.36932C45.8455 5.81249 45.717 6.10712 45.4577 6.29073C45.4577 6.29073 45.4401 6.31007 45.4219 6.32812C45.2749 6.03272 45.1461 5.73886 44.9981 5.44372C44.8157 5.1861 44.558 4.98173 44.4095 4.68736H44.3737V4.65035C44.5956 4.59555 44.8157 4.55777 45.1276 4.55777Z" fill="#00758F"/>
</g>
<defs>
<clipPath id="clip0_5_631">
<rect width="66.0172" height="45" fill="white"/>
</clipPath>
</defs>
</svg>
