<svg width="45" height="45" viewBox="0 0 45 45" fill="none" xmlns="http://www.w3.org/2000/svg">
<g clip-path="url(#clip0_5_627)">
<path d="M22.5 45C34.9264 45 45 34.9264 45 22.5C45 10.0736 34.9264 0 22.5 0C10.0736 0 0 10.0736 0 22.5C0 34.9264 10.0736 45 22.5 45Z" fill="#05930C"/>
<path d="M6.83842 6.3457L38.6255 38.1913C34.538 42.3914 28.8236 45 22.5 45C10.0737 45 0 34.9263 0 22.5C0 16.1613 2.6209 10.4351 6.83842 6.3457Z" fill="white" fill-opacity="0.1"/>
<path d="M21.3961 30.6211C19.8655 31.3658 18.1753 31.7232 16.4742 31.6617C15.3501 31.711 14.2283 31.5194 13.1842 31.0998C12.1401 30.6803 11.1978 30.0424 10.4203 29.2289C8.8574 27.4769 8.04223 25.1829 8.14922 22.8375C8.09477 21.5795 8.29322 20.3233 8.73283 19.1434C9.17245 17.9634 9.84429 16.8837 10.7086 15.968C11.5528 15.1043 12.5679 14.4262 13.689 13.977C14.8101 13.5279 16.0125 13.3175 17.2195 13.3594C18.6452 13.305 20.0668 13.5443 21.3961 14.0625V16.2773C20.1068 15.5608 18.6522 15.1947 17.1773 15.2156C16.259 15.1852 15.3448 15.3514 14.496 15.703C13.6471 16.0547 12.8832 16.5837 12.2555 17.2547C10.9389 18.7555 10.258 20.7099 10.357 22.7039C10.2596 24.5884 10.8945 26.4376 12.1289 27.8648C12.7207 28.5012 13.4431 29.0021 14.2464 29.3334C15.0498 29.6647 15.9153 29.8185 16.7836 29.7844C18.4039 29.8246 20.0034 29.4132 21.4031 28.5961L21.3961 30.6211ZM37.0969 18.6047L36.8156 19.9125H33.5813L32.8078 23.625H36.2813L35.9508 24.9328H32.5477L31.4578 29.8547H29.9039L30.9656 24.9328H27.8719L26.8313 29.8547H25.3125L26.3531 24.9328H23.0906L23.3367 23.625H26.6133L27.3656 19.9195H23.9414L24.2016 18.6117H27.6258L28.6664 13.6406H30.2344L29.1938 18.6117H32.3086L33.3703 13.6406H34.8891L33.8484 18.6117L37.0969 18.6047ZM32.0555 19.9125H28.9336L28.125 23.625H31.2609L32.0555 19.9125Z" fill="white"/>
</g>
<defs>
<clipPath id="clip0_5_627">
<rect width="45" height="45" fill="white"/>
</clipPath>
</defs>
</svg>
